<?xml version="1.0" standalone="no"?>
<!DOCTYPE svg PUBLIC "-//W3C//DTD SVG 20010904//EN"
 "http://www.w3.org/TR/2001/REC-SVG-20010904/DTD/svg10.dtd">
<svg version="1.0" xmlns="http://www.w3.org/2000/svg"
 width="386.000000pt" height="386.000000pt" viewBox="0 0 386.000000 386.000000"
 preserveAspectRatio="xMidYMid meet">
<metadata>
Created by potrace 1.11, written by Peter Selinger 2001-2013
</metadata>
<g transform="translate(0.000000,386.000000) scale(0.100000,-0.100000)"
fill="#000000" stroke="none">
<path d="M1783 3409 c-195 -25 -351 -102 -367 -182 -16 -78 -66 -365 -66 -378
0 -15 116 -48 230 -65 25 -3 54 -8 65 -10 85 -16 368 -22 500 -10 171 15 388
57 401 77 5 9 -30 234 -43 269 -3 8 -7 36 -9 63 -2 26 -11 61 -19 77 -32 61
-134 115 -279 146 -81 18 -320 25 -413 13z"/>
<path d="M1205 2805 c-501 -96 -759 -263 -670 -435 54 -104 243 -202 523 -271
28 -7 52 -16 52 -19 0 -4 -18 -15 -40 -25 -22 -10 -40 -22 -40 -27 0 -4 -6 -8
-13 -8 -31 0 -272 -172 -370 -264 -30 -28 -27 -51 4 -43 11 3 19 2 19 -3 0 -4
21 -13 48 -21 199 -55 467 -193 551 -282 l23 -26 -26 -52 c-14 -29 -26 -58
-26 -65 0 -6 -7 -17 -15 -24 -29 -24 -14 -47 79 -123 110 -91 287 -268 381
-382 78 -94 178 -242 229 -338 l36 -69 17 32 c139 254 394 555 664 784 l65 55
-44 93 -45 93 54 48 c30 27 70 58 89 68 106 60 143 78 220 111 47 19 135 52
197 72 73 24 110 41 107 49 -18 40 -258 216 -412 302 -39 22 -72 43 -72 46 0
3 24 11 53 18 275 67 469 168 523 272 65 127 -65 259 -348 353 -103 34 -295
81 -368 90 -19 2 -48 7 -64 12 -27 6 -28 5 -23 -17 17 -71 27 -153 20 -160 -9
-9 -188 -55 -248 -64 -23 -3 -50 -7 -62 -9 -94 -18 -369 -25 -528 -13 -143 11
-405 64 -428 86 -7 7 3 89 20 159 3 12 1 22 -3 21 -5 0 -63 -11 -129 -24z
m353 -809 c99 -19 151 -25 224 -29 l57 -2 -20 -21 c-11 -11 -41 -31 -66 -44
-95 -47 -194 -23 -280 68 -49 51 -54 66 -19 52 14 -5 60 -16 104 -24z m912 24
c0 -5 -22 -31 -50 -59 -55 -55 -134 -91 -189 -86 -42 4 -107 32 -143 61 l-27
22 32 5 c18 4 68 9 112 13 44 3 84 8 88 11 4 3 25 7 46 9 30 4 99 21 129 33 1
1 2 -3 2 -9z"/>
</g>
</svg>
